<?xml version="1.0" standalone="no"?><!DOCTYPE svg PUBLIC "-//W3C//DTD SVG 1.1//EN" "http://www.w3.org/Graphics/SVG/1.1/DTD/svg11.dtd"><svg t="1741589746855" class="icon" viewBox="0 0 1024 1024" version="1.1" xmlns="http://www.w3.org/2000/svg" p-id="30099" xmlns:xlink="http://www.w3.org/1999/xlink" width="200" height="200"><path d="M531.2 32c-275.2 0-499.2 192-499.2 428.8 0 140.8 51.2 256 153.6 339.2 0 0 0 57.6 0 140.8 0 38.4 12.8 51.2 32 51.2 19.2 0 32-12.8 32-12.8l153.6-89.6c32 6.4 96 12.8 128 12.8 275.2 0 460.8-204.8 460.8-441.6S761.6 32 531.2 32zM531.2 838.4c-25.6 0-89.6-6.4-115.2-6.4l-25.6-6.4-19.2 12.8-115.2 64 0-102.4L256 768l-25.6-19.2c-83.2-70.4-128-172.8-128-288 0-204.8 192-364.8 435.2-364.8 185.6 0 396.8 153.6 396.8 364.8C928 678.4 755.2 838.4 531.2 838.4z" fill="#707070" p-id="30100"></path><path d="M288 467.2m-57.6 0a0.9 0.9 0 1 0 115.2 0 0.9 0.9 0 1 0-115.2 0Z" fill="#707070" p-id="30101"></path><path d="M512 467.2m-57.6 0a0.9 0.9 0 1 0 115.2 0 0.9 0.9 0 1 0-115.2 0Z" fill="#707070" p-id="30102"></path><path d="M736 467.2m-57.6 0a0.9 0.9 0 1 0 115.2 0 0.9 0.9 0 1 0-115.2 0Z" fill="#707070" p-id="30103"></path></svg>